<svg width="645" height="687" viewBox="0 0 645 687" fill="none" xmlns="http://www.w3.org/2000/svg">
<g clip-path="url(#clip0_14_5)">
<rect width="191.39" height="254.89" rx="12" transform="matrix(0.995817 0.0913942 -0.107431 0.994215 67.6565 0)"/>
<rect width="191.39" height="254.89" rx="12" transform="matrix(0.995817 0.0913942 -0.107431 0.994215 294.535 109.591)" fill="#E7E6E7"/>
<rect width="191.39" height="254.89" rx="12" transform="matrix(0.995817 0.0913942 -0.107431 0.994215 294.535 109.591)"/>
<rect width="191.39" height="254.89" rx="12" transform="matrix(0.995817 0.0913942 -0.107431 0.994215 36.8811 284.807)"/>
<rect width="191.39" height="254.89" rx="12" transform="matrix(0.995817 0.0913942 -0.107431 0.994215 263.76 394.398)"/>
<rect width="191.39" height="254.89" rx="12" transform="matrix(0.995817 0.0913942 -0.107431 0.994215 505.688 364.724)"/>
<rect width="191.39" height="254.89" rx="12" transform="matrix(0.995817 0.0913942 -0.107431 0.994215 536.463 79.917)"/>
<g filter="url(#filter0_dd_14_5)">
<rect x="299.887" y="286.124" width="140" height="68" rx="8" transform="rotate(5.89103 299.887 286.124)" fill="white"/>
<path d="M323.631 315.717L321.673 315.515L326.284 305.755L328.549 305.988L331.074 316.485L329.116 316.283L327.241 307.953L327.162 307.944L323.631 315.717ZM324.105 311.752L329.446 312.303L329.294 313.777L323.953 313.226L324.105 311.752ZM334.886 306.642L333.841 316.77L332.051 316.586L333.096 306.457L334.886 306.642ZM335.482 316.94L336.527 306.812L338.317 306.996L337.927 310.784L338.001 310.792C338.112 310.617 338.263 310.434 338.452 310.244C338.642 310.05 338.888 309.894 339.19 309.775C339.493 309.653 339.867 309.615 340.312 309.661C340.898 309.722 341.412 309.926 341.853 310.275C342.297 310.621 342.627 311.1 342.844 311.712C343.064 312.321 343.131 313.047 343.044 313.891C342.958 314.726 342.748 315.42 342.414 315.976C342.08 316.531 341.662 316.937 341.159 317.195C340.655 317.453 340.106 317.552 339.509 317.49C339.074 317.445 338.72 317.335 338.448 317.161C338.176 316.986 337.964 316.787 337.81 316.565C337.66 316.34 337.547 316.13 337.47 315.935L337.366 315.925L337.243 317.121L335.482 316.94ZM337.63 313.323C337.579 313.814 337.604 314.251 337.704 314.635C337.808 315.019 337.981 315.328 338.223 315.563C338.469 315.795 338.782 315.931 339.161 315.97C339.556 316.011 339.899 315.939 340.188 315.756C340.477 315.569 340.708 315.298 340.881 314.943C341.058 314.584 341.171 314.168 341.22 313.693C341.269 313.222 341.244 312.796 341.147 312.416C341.049 312.036 340.878 311.729 340.632 311.493C340.387 311.258 340.064 311.12 339.666 311.079C339.283 311.039 338.948 311.106 338.66 311.28C338.372 311.454 338.141 311.714 337.965 312.063C337.792 312.412 337.68 312.832 337.63 313.323ZM347.244 318.303C346.482 318.225 345.841 317.998 345.32 317.625C344.802 317.248 344.425 316.753 344.189 316.139C343.952 315.521 343.875 314.815 343.957 314.021C344.038 313.239 344.257 312.569 344.615 312.009C344.976 311.447 345.442 311.028 346.014 310.754C346.585 310.477 347.234 310.375 347.959 310.45C348.427 310.498 348.861 310.62 349.261 310.814C349.664 311.006 350.01 311.275 350.297 311.621C350.588 311.968 350.801 312.393 350.936 312.896C351.07 313.397 351.104 313.98 351.035 314.646L350.978 315.195L344.752 314.552L344.877 313.346L349.387 313.811C349.419 313.468 349.376 313.155 349.259 312.873C349.141 312.588 348.961 312.354 348.716 312.173C348.475 311.991 348.183 311.883 347.84 311.847C347.474 311.81 347.143 311.865 346.848 312.015C346.553 312.161 346.313 312.37 346.129 312.64C345.948 312.908 345.838 313.212 345.8 313.551L345.691 314.604C345.646 315.046 345.687 315.434 345.816 315.767C345.946 316.097 346.147 316.361 346.419 316.559C346.692 316.754 347.023 316.871 347.413 316.911C347.673 316.938 347.912 316.926 348.131 316.875C348.35 316.821 348.544 316.73 348.714 316.601C348.884 316.472 349.02 316.304 349.121 316.098L350.773 316.458C350.622 316.889 350.381 317.254 350.05 317.553C349.723 317.849 349.321 318.064 348.844 318.198C348.367 318.329 347.834 318.364 347.244 318.303ZM351.873 318.631L352.657 311.035L354.392 311.214L354.262 312.48L354.341 312.488C354.525 312.064 354.797 311.75 355.158 311.548C355.522 311.342 355.922 311.262 356.357 311.307C356.456 311.317 356.566 311.333 356.687 311.356C356.811 311.375 356.914 311.397 356.995 311.422L356.825 313.069C356.752 313.035 356.634 313 356.471 312.963C356.312 312.923 356.157 312.895 356.005 312.88C355.678 312.846 355.378 312.887 355.103 313.002C354.831 313.113 354.609 313.285 354.435 313.517C354.261 313.749 354.157 314.027 354.124 314.35L353.663 318.816L351.873 318.631ZM362.101 312.009L361.958 313.394L357.591 312.943L357.734 311.559L362.101 312.009ZM359 309.85L360.79 310.035L360.054 317.166C360.029 317.407 360.047 317.595 360.106 317.731C360.169 317.864 360.259 317.96 360.376 318.019C360.493 318.078 360.626 318.115 360.774 318.13C360.886 318.141 360.99 318.144 361.084 318.137C361.181 318.13 361.255 318.123 361.306 318.115L361.463 319.545C361.364 319.569 361.223 319.591 361.041 319.612C360.862 319.633 360.646 319.634 360.391 319.615C359.942 319.582 359.545 319.472 359.201 319.287C358.857 319.098 358.596 318.835 358.417 318.496C358.242 318.159 358.181 317.752 358.233 317.278L359 309.85ZM367.922 320.287L366.109 309.864L368.082 310.067L369.139 317.698L369.233 317.708L371.949 310.466L373.744 310.652L374.929 318.301L375.018 318.31L377.611 311.051L379.585 311.254L375.681 321.087L373.871 320.901L372.577 313.585L372.498 313.577L369.732 320.474L367.922 320.287ZM379.454 321.477L380.238 313.881L382.028 314.065L381.244 321.661L379.454 321.477ZM381.249 312.895C380.966 312.866 380.731 312.747 380.546 312.538C380.362 312.326 380.283 312.086 380.311 311.819C380.339 311.549 380.464 311.33 380.688 311.163C380.912 310.993 381.166 310.923 381.45 310.952C381.737 310.982 381.971 311.102 382.152 311.314C382.337 311.523 382.416 311.763 382.388 312.033C382.36 312.3 382.234 312.519 382.01 312.689C381.79 312.856 381.536 312.925 381.249 312.895ZM385.642 311.879L384.597 322.007L382.807 321.823L383.852 311.695L385.642 311.879ZM388.995 312.225L387.949 322.353L386.159 322.169L387.204 312.041L388.995 312.225ZM389.512 322.515L390.296 314.918L392.086 315.103L391.302 322.699L389.512 322.515ZM391.307 313.933C391.023 313.904 390.789 313.785 390.604 313.576C390.419 313.364 390.341 313.124 390.368 312.857C390.396 312.586 390.522 312.368 390.746 312.201C390.97 312.031 391.224 311.96 391.507 311.99C391.794 312.019 392.028 312.14 392.21 312.352C392.395 312.561 392.473 312.801 392.445 313.071C392.418 313.338 392.292 313.557 392.068 313.727C391.847 313.894 391.594 313.963 391.307 313.933ZM395.034 323.239C394.553 323.19 394.128 323.059 393.76 322.848C393.396 322.634 393.119 322.345 392.93 321.983C392.744 321.62 392.677 321.19 392.728 320.692C392.773 320.264 392.888 319.917 393.075 319.653C393.263 319.39 393.502 319.188 393.793 319.048C394.084 318.908 394.405 318.813 394.757 318.762C395.112 318.709 395.476 318.682 395.85 318.68C396.3 318.68 396.665 318.676 396.946 318.668C397.227 318.657 397.434 318.619 397.567 318.553C397.704 318.483 397.782 318.363 397.799 318.192L397.802 318.162C397.841 317.789 397.76 317.49 397.56 317.262C397.361 317.035 397.053 316.9 396.638 316.857C396.199 316.812 395.841 316.872 395.565 317.036C395.291 317.202 395.096 317.41 394.98 317.661L393.333 317.251C393.513 316.803 393.77 316.44 394.105 316.161C394.441 315.879 394.836 315.684 395.291 315.574C395.745 315.461 396.238 315.432 396.769 315.486C397.135 315.524 397.495 315.605 397.849 315.728C398.203 315.851 398.519 316.027 398.799 316.256C399.079 316.481 399.292 316.771 399.439 317.126C399.589 317.482 399.638 317.912 399.586 318.416L399.061 323.5L397.34 323.322L397.448 322.279L397.388 322.273C397.258 322.472 397.084 322.654 396.867 322.819C396.654 322.98 396.393 323.101 396.085 323.183C395.78 323.261 395.43 323.28 395.034 323.239ZM395.635 321.972C395.994 322.009 396.313 321.97 396.592 321.856C396.87 321.738 397.093 321.567 397.259 321.345C397.429 321.122 397.528 320.871 397.557 320.591L397.649 319.696C397.588 319.736 397.488 319.769 397.349 319.795C397.213 319.821 397.061 319.84 396.893 319.853C396.725 319.865 396.559 319.875 396.396 319.881C396.232 319.888 396.089 319.893 395.969 319.897C395.698 319.906 395.453 319.94 395.234 320.001C395.014 320.062 394.836 320.16 394.698 320.296C394.561 320.428 394.481 320.61 394.457 320.841C394.423 321.17 394.518 321.432 394.741 321.625C394.965 321.818 395.263 321.933 395.635 321.972ZM400.583 323.657L401.366 316.061L403.077 316.237L402.944 317.528L403.033 317.537C403.236 317.118 403.534 316.806 403.925 316.6C404.316 316.39 404.766 316.312 405.273 316.364C405.788 316.417 406.208 316.587 406.535 316.874C406.866 317.158 407.082 317.522 407.182 317.965L407.261 317.974C407.473 317.569 407.791 317.262 408.216 317.052C408.645 316.84 409.134 316.762 409.685 316.819C410.384 316.891 410.931 317.171 411.327 317.658C411.724 318.146 411.878 318.813 411.791 319.66L411.264 324.759L409.469 324.574L409.967 319.752C410.015 319.281 409.926 318.923 409.698 318.68C409.47 318.433 409.175 318.291 408.812 318.253C408.38 318.209 408.028 318.309 407.756 318.554C407.488 318.797 407.332 319.132 407.288 319.561L406.799 324.298L405.043 324.117L405.548 319.221C405.589 318.829 405.503 318.503 405.289 318.245C405.079 317.987 404.785 317.838 404.406 317.799C404.149 317.772 403.908 317.814 403.683 317.924C403.459 318.031 403.272 318.197 403.122 318.421C402.973 318.642 402.882 318.909 402.849 319.223L402.373 323.842L400.583 323.657Z" fill="#0F172A"/>
<path d="M311.786 338.622L312.831 328.494L316.629 328.885C317.407 328.966 318.045 329.178 318.542 329.523C319.043 329.868 319.402 330.308 319.62 330.843C319.842 331.376 319.92 331.964 319.853 332.607C319.786 333.256 319.59 333.819 319.264 334.295C318.939 334.772 318.494 335.127 317.93 335.362C317.366 335.594 316.693 335.669 315.912 335.589L313.395 335.329L313.551 333.821L315.82 334.055C316.275 334.102 316.656 334.061 316.963 333.933C317.269 333.805 317.506 333.609 317.673 333.346C317.843 333.084 317.947 332.773 317.984 332.414C318.021 332.055 317.983 331.731 317.869 331.442C317.759 331.155 317.565 330.92 317.287 330.738C317.013 330.553 316.647 330.437 316.189 330.389L314.507 330.216L313.62 338.811L311.786 338.622ZM320.39 339.509L321.174 331.913L322.91 332.093L322.779 333.359L322.858 333.367C323.042 332.942 323.314 332.629 323.675 332.426C324.039 332.221 324.439 332.14 324.874 332.185C324.973 332.195 325.083 332.212 325.204 332.234C325.329 332.254 325.432 332.276 325.512 332.301L325.342 333.948C325.269 333.914 325.151 333.878 324.988 333.841C324.829 333.802 324.674 333.774 324.522 333.758C324.196 333.725 323.895 333.765 323.62 333.88C323.349 333.992 323.126 334.164 322.952 334.396C322.778 334.628 322.675 334.905 322.641 335.229L322.18 339.694L320.39 339.509ZM328.618 340.508C327.877 340.432 327.251 340.202 326.74 339.82C326.23 339.437 325.855 338.937 325.616 338.319C325.379 337.702 325.302 337.001 325.383 336.216C325.464 335.431 325.683 334.759 326.041 334.2C326.402 333.641 326.871 333.226 327.449 332.956C328.026 332.685 328.686 332.589 329.428 332.665C330.17 332.742 330.796 332.971 331.306 333.354C331.816 333.736 332.189 334.238 332.425 334.859C332.664 335.48 332.743 336.183 332.662 336.967C332.581 337.752 332.361 338.422 332 338.978C331.643 339.534 331.175 339.948 330.598 340.218C330.02 340.488 329.36 340.585 328.618 340.508ZM328.776 339.075C329.179 339.117 329.526 339.041 329.819 338.848C330.113 338.652 330.345 338.372 330.516 338.01C330.689 337.648 330.8 337.237 330.848 336.775C330.896 336.31 330.872 335.883 330.775 335.493C330.683 335.1 330.513 334.778 330.265 334.526C330.018 334.274 329.693 334.127 329.291 334.085C328.879 334.043 328.525 334.12 328.228 334.316C327.934 334.512 327.7 334.793 327.526 335.158C327.356 335.52 327.246 335.934 327.198 336.398C327.151 336.86 327.173 337.286 327.266 337.675C327.363 338.065 327.535 338.386 327.782 338.638C328.033 338.887 328.364 339.033 328.776 339.075ZM334.298 333.268L336.088 333.452L335.26 341.484C335.203 342.031 335.053 342.472 334.808 342.806C334.564 343.141 334.237 343.375 333.826 343.51C333.416 343.644 332.93 343.682 332.37 343.624C332.304 343.618 332.243 343.61 332.187 343.601C332.131 343.595 332.071 343.587 332.005 343.577L332.156 342.118C332.205 342.126 332.249 342.132 332.289 342.137C332.328 342.144 332.369 342.15 332.412 342.154C332.755 342.19 333.009 342.131 333.175 341.978C333.34 341.829 333.439 341.594 333.472 341.274L334.298 333.268ZM335.3 332.281C335.013 332.252 334.777 332.132 334.592 331.923C334.41 331.711 334.334 331.472 334.361 331.205C334.389 330.935 334.513 330.716 334.734 330.549C334.958 330.379 335.213 330.308 335.5 330.338C335.784 330.367 336.016 330.488 336.198 330.7C336.383 330.909 336.461 331.148 336.433 331.419C336.406 331.686 336.28 331.904 336.056 332.074C335.835 332.242 335.583 332.311 335.3 332.281ZM340.215 341.705C339.453 341.626 338.812 341.4 338.29 341.027C337.773 340.65 337.396 340.155 337.159 339.54C336.923 338.923 336.846 338.217 336.928 337.422C337.009 336.641 337.228 335.971 337.585 335.411C337.947 334.849 338.413 334.43 338.984 334.156C339.556 333.878 340.205 333.777 340.93 333.852C341.398 333.9 341.832 334.022 342.232 334.216C342.635 334.408 342.981 334.677 343.268 335.023C343.559 335.369 343.772 335.794 343.906 336.298C344.041 336.799 344.074 337.382 344.006 338.048L343.949 338.597L337.723 337.954L337.847 336.748L342.357 337.213C342.389 336.87 342.347 336.557 342.229 336.275C342.112 335.99 341.931 335.756 341.687 335.574C341.446 335.393 341.154 335.284 340.811 335.249C340.445 335.211 340.114 335.267 339.819 335.417C339.524 335.563 339.284 335.771 339.1 336.042C338.919 336.31 338.809 336.614 338.771 336.953L338.662 338.006C338.616 338.448 338.658 338.835 338.787 339.169C338.916 339.498 339.117 339.762 339.39 339.96C339.663 340.155 339.994 340.273 340.383 340.313C340.644 340.34 340.883 340.328 341.102 340.277C341.32 340.223 341.515 340.131 341.685 340.002C341.855 339.873 341.99 339.706 342.091 339.5L343.744 339.86C343.592 340.291 343.352 340.656 343.021 340.955C342.694 341.251 342.292 341.466 341.815 341.6C341.338 341.731 340.805 341.766 340.215 341.705ZM348.142 342.523C347.383 342.445 346.749 342.211 346.24 341.822C345.733 341.433 345.364 340.93 345.131 340.313C344.902 339.693 344.827 338.999 344.906 338.231C344.986 337.459 345.204 336.794 345.562 336.234C345.92 335.671 346.386 335.253 346.961 334.979C347.539 334.702 348.199 334.602 348.941 334.678C349.557 334.742 350.091 334.912 350.543 335.189C350.998 335.462 351.346 335.82 351.587 336.261C351.828 336.699 351.94 337.194 351.923 337.745L350.212 337.569C350.181 337.195 350.047 336.873 349.812 336.603C349.58 336.329 349.249 336.17 348.817 336.125C348.451 336.087 348.119 336.153 347.822 336.322C347.525 336.488 347.28 336.746 347.087 337.096C346.898 337.446 346.777 337.877 346.724 338.388C346.671 338.906 346.7 339.359 346.814 339.747C346.927 340.132 347.11 340.439 347.363 340.668C347.62 340.895 347.934 341.027 348.307 341.065C348.571 341.093 348.812 341.068 349.029 340.99C349.251 340.91 349.443 340.781 349.604 340.605C349.765 340.428 349.887 340.206 349.968 339.937L351.679 340.114C351.58 340.647 351.373 341.107 351.057 341.494C350.74 341.878 350.335 342.163 349.839 342.348C349.344 342.53 348.778 342.588 348.142 342.523ZM357.179 335.628L357.036 337.013L352.67 336.563L352.813 335.178L357.179 335.628ZM354.078 333.469L355.869 333.654L355.133 340.785C355.108 341.026 355.125 341.214 355.184 341.35C355.247 341.483 355.337 341.579 355.455 341.638C355.572 341.697 355.705 341.734 355.853 341.749C355.965 341.761 356.068 341.763 356.162 341.756C356.259 341.749 356.334 341.742 356.384 341.734L356.542 343.165C356.443 343.188 356.302 343.21 356.12 343.231C355.941 343.253 355.724 343.254 355.47 343.234C355.02 343.201 354.623 343.092 354.279 342.906C353.935 342.717 353.674 342.454 353.496 342.116C353.321 341.778 353.26 341.372 353.312 340.897L354.078 333.469ZM361.914 333.558L364.159 333.79L366.409 341.439L366.527 341.451L370.291 334.422L372.537 334.654L371.492 344.782L369.731 344.601L370.449 337.642L370.355 337.633L366.841 344.272L365.526 344.137L363.443 336.905L363.349 336.895L362.63 343.868L360.869 343.686L361.914 333.558ZM375.302 345.33C374.821 345.281 374.396 345.15 374.028 344.939C373.663 344.725 373.387 344.436 373.198 344.074C373.012 343.711 372.944 343.281 372.996 342.783C373.04 342.355 373.156 342.008 373.343 341.744C373.53 341.481 373.769 341.279 374.06 341.139C374.351 340.999 374.672 340.904 375.024 340.853C375.38 340.8 375.744 340.773 376.117 340.771C376.567 340.771 376.932 340.767 377.213 340.759C377.494 340.748 377.701 340.71 377.835 340.644C377.972 340.574 378.049 340.454 378.067 340.283L378.07 340.253C378.108 339.88 378.028 339.581 377.828 339.353C377.628 339.126 377.32 338.991 376.905 338.948C376.467 338.903 376.109 338.963 375.832 339.127C375.558 339.293 375.364 339.501 375.248 339.752L373.601 339.342C373.78 338.894 374.038 338.531 374.373 338.252C374.709 337.97 375.104 337.775 375.558 337.665C376.013 337.552 376.506 337.523 377.037 337.577C377.402 337.615 377.762 337.696 378.116 337.819C378.47 337.942 378.787 338.118 379.066 338.347C379.346 338.572 379.56 338.862 379.706 339.217C379.856 339.573 379.905 340.003 379.853 340.507L379.328 345.591L377.607 345.413L377.715 344.37L377.656 344.364C377.525 344.563 377.351 344.745 377.135 344.91C376.921 345.071 376.661 345.192 376.352 345.274C376.048 345.352 375.698 345.371 375.302 345.33ZM375.903 344.063C376.262 344.1 376.581 344.061 376.859 343.947C377.138 343.829 377.36 343.658 377.527 343.436C377.696 343.213 377.795 342.962 377.824 342.682L377.917 341.787C377.856 341.827 377.756 341.86 377.617 341.886C377.481 341.912 377.329 341.931 377.161 341.944C376.993 341.956 376.827 341.966 376.663 341.972C376.499 341.979 376.357 341.984 376.237 341.988C375.966 341.997 375.721 342.031 375.501 342.092C375.282 342.153 375.103 342.251 374.966 342.387C374.829 342.519 374.749 342.701 374.725 342.932C374.691 343.261 374.785 343.523 375.009 343.716C375.232 343.909 375.53 344.024 375.903 344.063ZM383.099 341.482L382.64 345.933L380.85 345.748L381.634 338.152L383.345 338.328L383.212 339.619L383.301 339.628C383.519 339.221 383.833 338.912 384.241 338.701C384.653 338.49 385.142 338.414 385.709 338.472C386.233 338.526 386.678 338.686 387.044 338.95C387.413 339.215 387.683 339.571 387.854 340.018C388.027 340.466 388.081 340.993 388.015 341.599L387.516 346.436L385.726 346.251L386.197 341.691C386.249 341.184 386.158 340.773 385.924 340.459C385.693 340.145 385.347 339.964 384.885 339.917C384.572 339.884 384.286 339.925 384.028 340.038C383.773 340.148 383.564 340.325 383.399 340.568C383.237 340.811 383.137 341.116 383.099 341.482ZM391.228 346.974C390.746 346.924 390.322 346.793 389.954 346.582C389.589 346.368 389.312 346.08 389.123 345.717C388.937 345.354 388.87 344.924 388.922 344.426C388.966 343.998 389.081 343.652 389.269 343.388C389.456 343.124 389.695 342.922 389.986 342.782C390.277 342.642 390.598 342.547 390.95 342.497C391.305 342.443 391.67 342.416 392.043 342.415C392.493 342.414 392.858 342.41 393.139 342.403C393.42 342.392 393.627 342.353 393.76 342.287C393.898 342.218 393.975 342.097 393.993 341.926L393.996 341.896C394.034 341.524 393.953 341.224 393.754 340.997C393.554 340.769 393.246 340.634 392.831 340.592C392.392 340.546 392.035 340.606 391.758 340.771C391.484 340.936 391.289 341.144 391.174 341.395L389.527 340.985C389.706 340.537 389.963 340.174 390.299 339.895C390.634 339.614 391.029 339.418 391.484 339.308C391.939 339.195 392.431 339.166 392.962 339.221C393.328 339.258 393.688 339.339 394.042 339.462C394.396 339.585 394.712 339.761 394.992 339.99C395.272 340.215 395.485 340.506 395.632 340.861C395.782 341.216 395.831 341.646 395.779 342.15L395.254 347.234L393.533 347.056L393.641 346.013L393.582 346.007C393.451 346.207 393.277 346.389 393.06 346.553C392.847 346.714 392.586 346.835 392.278 346.917C391.973 346.995 391.623 347.014 391.228 346.974ZM391.828 345.706C392.188 345.743 392.507 345.704 392.785 345.59C393.064 345.472 393.286 345.302 393.452 345.079C393.622 344.857 393.721 344.605 393.75 344.325L393.842 343.43C393.782 343.47 393.682 343.503 393.542 343.529C393.406 343.555 393.254 343.574 393.087 343.587C392.919 343.599 392.753 343.609 392.589 343.615C392.425 343.622 392.283 343.627 392.162 343.631C391.892 343.64 391.646 343.675 391.427 343.735C391.207 343.796 391.029 343.894 390.892 344.03C390.755 344.162 390.674 344.344 390.651 344.575C390.617 344.905 390.711 345.166 390.934 345.359C391.158 345.552 391.456 345.668 391.828 345.706ZM399.769 350.739C399.126 350.672 398.583 350.528 398.139 350.306C397.695 350.087 397.348 349.818 397.098 349.498C396.848 349.179 396.686 348.838 396.614 348.474L398.267 348.25C398.324 348.405 398.414 348.563 398.538 348.722C398.661 348.885 398.834 349.026 399.059 349.146C399.286 349.269 399.579 349.35 399.938 349.387C400.446 349.439 400.879 349.359 401.238 349.146C401.596 348.936 401.804 348.551 401.862 347.991L402.01 346.552L401.921 346.543C401.81 346.718 401.655 346.893 401.457 347.069C401.262 347.246 401.013 347.385 400.709 347.487C400.409 347.589 400.041 347.618 399.606 347.573C399.022 347.513 398.507 347.321 398.061 346.999C397.618 346.673 397.285 346.222 397.061 345.646C396.841 345.067 396.773 344.364 396.859 343.536C396.945 342.702 397.156 342.012 397.492 341.467C397.832 340.919 398.254 340.521 398.76 340.274C399.265 340.023 399.81 339.927 400.394 339.987C400.839 340.033 401.197 340.147 401.468 340.328C401.743 340.507 401.955 340.71 402.105 340.939C402.255 341.164 402.365 341.374 402.435 341.568L402.534 341.578L402.663 340.322L404.429 340.504L403.632 348.223C403.565 348.873 403.355 349.394 403.001 349.788C402.647 350.181 402.191 350.455 401.631 350.611C401.072 350.767 400.451 350.809 399.769 350.739ZM400.25 346.22C400.629 346.259 400.962 346.2 401.248 346.043C401.534 345.886 401.764 345.642 401.939 345.31C402.113 344.978 402.225 344.57 402.275 344.085C402.324 343.607 402.298 343.181 402.197 342.807C402.099 342.434 401.926 342.135 401.68 341.909C401.437 341.681 401.122 341.547 400.737 341.507C400.338 341.466 399.994 341.536 399.705 341.716C399.417 341.896 399.186 342.16 399.014 342.509C398.842 342.854 398.732 343.256 398.684 343.715C398.637 344.179 398.662 344.594 398.761 344.957C398.864 345.317 399.039 345.609 399.286 345.831C399.536 346.05 399.858 346.18 400.25 346.22ZM408.549 348.756C407.787 348.677 407.146 348.451 406.624 348.077C406.107 347.701 405.73 347.205 405.493 346.591C405.257 345.974 405.18 345.268 405.262 344.473C405.343 343.692 405.562 343.021 405.919 342.462C406.281 341.899 406.747 341.481 407.318 341.207C407.89 340.929 408.539 340.828 409.264 340.903C409.732 340.951 410.166 341.072 410.566 341.267C410.969 341.459 411.315 341.727 411.602 342.074C411.893 342.42 412.106 342.845 412.24 343.349C412.375 343.849 412.408 344.433 412.34 345.099L412.283 345.647L406.057 345.005L406.181 343.798L410.691 344.264C410.723 343.92 410.681 343.608 410.563 343.326C410.446 343.041 410.265 342.807 410.021 342.625C409.78 342.444 409.488 342.335 409.145 342.3C408.779 342.262 408.448 342.318 408.153 342.467C407.858 342.614 407.618 342.822 407.434 343.093C407.253 343.361 407.143 343.664 407.105 344.004L406.996 345.057C406.95 345.499 406.992 345.886 407.121 346.219C407.25 346.549 407.451 346.813 407.724 347.011C407.997 347.206 408.328 347.324 408.717 347.364C408.978 347.391 409.217 347.379 409.436 347.328C409.654 347.274 409.849 347.182 410.019 347.053C410.189 346.924 410.324 346.756 410.425 346.55L412.078 346.911C411.926 347.342 411.686 347.707 411.355 348.006C411.028 348.302 410.626 348.517 410.149 348.651C409.672 348.782 409.139 348.817 408.549 348.756ZM413.178 349.083L413.961 341.487L415.697 341.666L415.566 342.932L415.646 342.941C415.829 342.516 416.102 342.203 416.462 342C416.827 341.795 417.227 341.714 417.662 341.759C417.761 341.769 417.871 341.786 417.992 341.808C418.116 341.828 418.219 341.85 418.3 341.875L418.13 343.522C418.056 343.488 417.939 343.452 417.776 343.415C417.617 343.376 417.461 343.348 417.31 343.332C416.983 343.299 416.682 343.339 416.407 343.454C416.136 343.566 415.913 343.738 415.739 343.97C415.565 344.202 415.462 344.479 415.429 344.802L414.968 349.268L413.178 349.083Z" fill="#657791"/>
<path d="M373.291 298.917C374.18 298.979 374.701 297.936 374.116 297.263L368.485 290.782C368.123 290.365 367.491 290.321 367.074 290.683L360.593 296.314C359.921 296.899 360.29 298.004 361.179 298.067L373.291 298.917Z" fill="white"/>
</g>
</g>
<defs>
<filter id="filter0_dd_14_5" x="280.292" y="286.124" width="170.856" height="111.979" filterUnits="userSpaceOnUse" color-interpolation-filters="sRGB">
<feFlood flood-opacity="0" result="BackgroundImageFix"/>
<feColorMatrix in="SourceAlpha" type="matrix" values="0 0 0 0 0 0 0 0 0 0 0 0 0 0 0 0 0 0 127 0" result="hardAlpha"/>
<feMorphology radius="2" operator="erode" in="SourceAlpha" result="effect1_dropShadow_14_5"/>
<feOffset dy="4"/>
<feGaussianBlur stdDeviation="3"/>
<feColorMatrix type="matrix" values="0 0 0 0 0.0627451 0 0 0 0 0.0941176 0 0 0 0 0.156863 0 0 0 0.03 0"/>
<feBlend mode="normal" in2="BackgroundImageFix" result="effect1_dropShadow_14_5"/>
<feColorMatrix in="SourceAlpha" type="matrix" values="0 0 0 0 0 0 0 0 0 0 0 0 0 0 0 0 0 0 127 0" result="hardAlpha"/>
<feMorphology radius="4" operator="erode" in="SourceAlpha" result="effect2_dropShadow_14_5"/>
<feOffset dy="12"/>
<feGaussianBlur stdDeviation="8"/>
<feColorMatrix type="matrix" values="0 0 0 0 0.0627451 0 0 0 0 0.0941176 0 0 0 0 0.156863 0 0 0 0.08 0"/>
<feBlend mode="normal" in2="effect1_dropShadow_14_5" result="effect2_dropShadow_14_5"/>
<feBlend mode="normal" in="SourceGraphic" in2="effect2_dropShadow_14_5" result="shape"/>
</filter>
<clipPath id="clip0_14_5">
<rect width="731" height="687" fill="white"/>
</clipPath>
</defs>
</svg>
